<svg width="316" height="316" viewBox="0 0 316 316" fill="none" xmlns="http://www.w3.org/2000/svg">
<path d="M157.986 0C70.7219 0 0 70.7354 0 157.986C0 245.238 70.7219 315.973 157.986 315.973C245.251 315.973 315.973 245.238 315.973 157.986C315.973 70.7354 245.238 0 157.986 0Z" fill="white"/>
<path d="M214.315 177.41C241.425 177.41 263.403 155.433 263.403 128.322C263.403 101.212 241.425 79.2344 214.315 79.2344C187.204 79.2344 165.227 101.212 165.227 128.322C165.227 155.433 187.204 177.41 214.315 177.41Z" fill="black"/>
<path d="M101.658 98.6535C85.2912 98.6535 71.9895 111.969 71.9895 128.322C71.9895 144.676 85.3047 157.991 101.658 157.991C118.012 157.991 131.327 144.676 131.327 128.322C131.327 111.969 118.012 98.6535 101.658 98.6535ZM101.658 79.2344C128.775 79.2344 150.746 101.219 150.746 128.322C150.746 155.425 128.761 177.41 101.658 177.41C74.5553 177.41 52.5703 155.425 52.5703 128.322C52.5703 101.219 74.5553 79.2344 101.658 79.2344Z" fill="black"/>
</svg>
