<svg width="640" height="640" viewBox="0 0 640 640" fill="none" xmlns="http://www.w3.org/2000/svg">
<path d="M264 301.2C295.8 286 312.4 263 312.4 227.2C312.4 156.6 259.8 139.4 199.1 139.4H32V493.8H203.8C268.2 493.8 328.7 462.9 328.7 390.9C328.7 346.4 307.6 313.5 264 301.2ZM109.9 199.9H183C211.1 199.9 236.4 207.8 236.4 240.4C236.4 270.5 216.7 282.6 188.9 282.6H109.9V199.9ZM193.2 433.6H109.9V336H194.8C229.1 336 250.8 350.3 250.8 386.6C250.8 422.4 224.9 433.6 193.2 433.6ZM551.7 192.9H408V158H551.7V192.9ZM608 369.2C608 293.3 563.6 230 483.1 230C404.9 230 351.8 288.8 351.8 365.8C351.8 445.7 402.1 500.5 483.1 500.5C544.4 500.5 584.1 472.9 603.2 414.2H541C534.3 436.1 506.7 447.7 485.3 447.7C444 447.7 422.3 423.5 422.3 382.4H607.4C607.7 378.2 608 373.7 608 369.2ZM422.4 338C424.7 304.3 447.1 283.2 480.9 283.2C516.3 283.2 534.1 304 537.1 338H422.4Z" fill="white"/>
</svg>
